<svg width="1194" height="801" viewBox="0 0 1194 801" fill="none" xmlns="http://www.w3.org/2000/svg">
<path d="M222.509 673.064C238.845 673.234 250.255 677.493 257.318 685.326C264.381 693.16 267.56 705.081 266.297 721.63C265.036 738.153 259.364 758.949 249.146 784.084C228.091 825.391 214.147 858.655 207.408 883.814C204.037 896.401 202.433 907.084 202.701 915.798C202.969 924.505 205.118 931.501 209.516 936.379C213.951 941.298 220.328 943.682 228.234 943.872C236.1 944.061 245.665 942.093 256.848 938.128C279.201 930.202 308.644 914.071 345.113 889.868C384.412 868.975 415.658 855.522 438.915 849.396C450.557 846.33 460.059 845.138 467.497 845.695C474.919 846.252 480.065 848.526 483.354 852.174C486.642 855.821 488.422 861.227 488.318 868.788C488.214 876.364 486.214 885.878 482.189 897.393C476.682 913.15 467.473 932.399 454.529 955.16C397.788 1036.14 307.866 1091.46 204.915 1100.64V1033.35H-30.1084C-114.386 969.75 -168.998 867.856 -169 753.002H103.548V693.441C119.216 693.004 137.879 690.187 159.499 685.039L159.589 685.019L159.677 684.99C185.259 676.827 206.177 672.895 222.509 673.064ZM371.588 922.344C346.086 922.344 325.412 943.348 325.412 969.258C325.412 995.168 346.086 1016.17 371.588 1016.17C397.09 1016.17 417.763 995.168 417.763 969.258C417.763 943.348 397.09 922.344 371.588 922.344ZM174.501 404C216.052 404 255.88 411.496 292.746 425.229V865.142H382.845V475.502C464.999 539.27 518.001 639.844 518.001 752.995C518.001 804.039 507.214 852.522 487.832 896.223C491.323 885.656 493.173 876.516 493.278 868.853C493.393 860.493 491.43 853.666 487.014 848.768C482.597 843.869 476.075 841.284 467.868 840.669C459.677 840.055 449.586 841.381 437.676 844.518C413.847 850.794 382.17 864.478 342.715 885.46L342.609 885.517L342.508 885.583C306.092 909.756 277.016 925.641 255.219 933.369C244.315 937.235 235.388 939.003 228.358 938.834C221.369 938.666 216.446 936.598 213.176 932.972C209.869 929.304 207.906 923.66 207.659 915.633C207.412 907.612 208.889 897.466 212.193 885.131C218.8 860.466 232.573 827.541 253.603 786.296L253.651 786.199L253.692 786.099L254.648 783.729C264.391 759.359 269.963 738.767 271.242 722.013C272.562 704.723 269.325 691.178 260.978 681.92C252.63 672.662 239.634 668.202 222.566 668.025C205.515 667.849 184.063 671.935 158.29 680.152C136.933 685.234 118.698 687.965 103.548 688.4V661.462H48.9248C47.3187 655.397 47.0097 648.21 48.0879 639.818C50.0964 624.186 56.8886 604.692 68.6338 581.271C90.9675 544.756 105.893 515.075 113.292 492.286C116.994 480.884 118.856 471.073 118.753 462.921C118.65 454.748 116.562 448.058 112.177 443.193C107.791 438.329 101.413 435.631 93.4092 434.812C85.4249 433.994 75.6429 435.021 64.1396 437.771C41.1296 443.27 10.6903 455.795 -27.1084 475.232L-24.8721 479.728C12.8095 460.35 42.8341 448.038 65.2695 442.676C76.4888 439.994 85.6757 439.085 92.9053 439.825C100.115 440.563 105.197 442.918 108.517 446.6C111.836 450.281 113.7 455.631 113.793 462.992C113.886 470.374 112.191 479.593 108.581 490.713C101.361 512.951 86.6623 542.262 64.3672 578.705L64.3115 578.796L64.2627 578.892C52.3724 602.586 45.2853 622.702 43.1689 639.173C42.1031 647.469 42.2918 654.922 43.8076 661.462H-157.063C-117.485 513.117 15.966 404 174.501 404ZM-47.3789 828.524C-72.8809 828.524 -93.5547 849.529 -93.5547 875.438C-93.5547 901.348 -72.8809 922.353 -47.3789 922.353C-21.8771 922.352 -1.2041 901.348 -1.2041 875.438C-1.20411 849.529 -21.8771 828.525 -47.3789 828.524ZM149.734 492.116C124.232 492.116 103.559 513.12 103.559 539.03C103.559 564.94 124.232 585.944 149.734 585.944C175.236 585.944 195.909 564.94 195.909 539.03C195.909 513.12 175.236 492.116 149.734 492.116Z" fill="#D9D9D9" fill-opacity="0.2"/>
</svg>
