<svg width="1194" height="834" viewBox="0 0 1194 834" fill="none" xmlns="http://www.w3.org/2000/svg">
<mask id="mask0_742_1185" style="mask-type:luminance" maskUnits="userSpaceOnUse" x="-147" y="-480" width="2011" height="2011">
<path d="M1569.25 1236.25C1961.79 843.714 1961.79 207.286 1569.25 -185.25C1176.71 -577.786 540.286 -577.786 147.75 -185.25C-244.786 207.286 -244.786 843.714 147.75 1236.25C540.286 1628.79 1176.71 1628.79 1569.25 1236.25Z" fill="white"/>
<path d="M148.104 -184.896C540.445 -577.238 1176.56 -577.238 1568.9 -184.896C1961.24 207.445 1961.24 843.555 1568.9 1235.9C1176.56 1628.24 540.445 1628.24 148.104 1235.9C-244.238 843.555 -244.238 207.445 148.104 -184.896Z" stroke="white"/>
</mask>
<g mask="url(#mask0_742_1185)">
<path d="M-189.047 -157.113C8.27782 -127.832 171.52 42.1052 377.974 -20.5815C602.686 -88.8134 808.126 -327.321 1049.34 -325.495C1239.97 -324.075 1357.7 -102.609 1525 -39.7866C1712.59 30.6769 1931.75 -126.209 2119.27 -146.226" stroke="#91A2EC" stroke-opacity="0.4" stroke-miterlimit="10"/>
<path d="M-190.668 -141.965C10.3084 -105.448 154.616 94.9195 370.064 24.9294C601.336 -50.2 818.88 -314.134 1068.55 -310.752C1262.35 -308.115 1372.24 -60.614 1537.92 9.78185C1721.11 87.6162 1936.69 -87.0547 2119.28 -109.438" stroke="#91A2EC" stroke-opacity="0.4" stroke-miterlimit="10"/>
<path d="M-192.021 -123.031C12.6065 -81.2396 138.792 145.501 363.098 69.2898C477.043 30.6093 587.134 -47.0898 688.839 -108.83C797.239 -174.695 948.986 -294.726 1084.37 -292.224C1282.03 -288.573 1383.26 -18.8233 1548.47 57.5233C1729.22 141.038 1939.94 -48.7128 2119.27 -72.719" stroke="#91A2EC" stroke-opacity="0.4" stroke-miterlimit="10"/>
<path d="M-192.969 -99.2263C15.5138 -54.8654 125.131 192.771 357.552 112.232C474.608 71.6577 588.215 -11.1132 692.085 -75.8963C801.499 -144.196 957.641 -271.598 1095.86 -268.623C1298.19 -264.295 1389.55 22.5632 1555.97 103.035C1736.46 190.269 1941.29 -11.3837 2119.27 -35.9309" stroke="#91A2EC" stroke-opacity="0.4" stroke-miterlimit="10"/>
<path d="M-193.508 -69.3373C19.0998 -26.0584 114.313 235.846 353.632 153.346C472.649 112.299 589.029 25.2676 693.845 -41.2737C804.476 -111.467 961.227 -241.98 1101.88 -238.936C1310.16 -234.338 1389.82 63.2043 1559.69 145.569C1742.21 234.088 1940.48 24.5914 2119.21 0.787981" stroke="#91A2EC" stroke-opacity="0.4" stroke-miterlimit="10"/>
<path d="M-194.182 -33.0234C17.6144 10.3231 114.18 271.687 352.147 188.578C471.637 146.855 588.49 61.1758 694.523 -5.02739C805.493 -74.2736 963.326 -204.313 1103.44 -202.487C1312.4 -199.715 1389.62 101.344 1559.42 183.371C1743.97 272.566 1939.06 60.432 2119.35 37.5077" stroke="#91A2EC" stroke-opacity="0.4" stroke-miterlimit="10"/>
<path d="M-198.51 5.92684C9.90516 50.2877 119.928 296.166 351.335 214.883C471.299 172.753 587.881 93.4313 696.552 29.7302C808.333 -35.7967 970.426 -162.996 1108.24 -161.982C1312.46 -160.426 1392.12 138.739 1557.06 220.225C1741.53 311.381 1938.59 97.2183 2119.28 74.3616" stroke="#91A2EC" stroke-opacity="0.4" stroke-miterlimit="10"/>
<path d="M-206.361 46.703C0.768763 88.7647 124.249 311.786 350.246 235.44C471.021 194.595 588.415 122.509 699.993 62.6621C813.736 1.66589 980.427 -119.988 1116.69 -118.23C1316.18 -115.728 1393.2 177.216 1553.4 258.229C1737.06 351.075 1938.58 134.14 2119.2 111.148" stroke="#91A2EC" stroke-opacity="0.4" stroke-miterlimit="10"/>
<path d="M-217.043 88.9013C-10.1834 126.026 127.903 320.308 349.031 251.4C470.956 213.396 589.906 149.086 704.595 94.3788C821.38 38.7249 992.467 -74.8823 1127.92 -71.4335C1322.87 -66.3617 1393.07 216.574 1548.87 297.113C1731.25 391.38 1939.19 170.996 2119.21 147.869" stroke="#91A2EC" stroke-opacity="0.4" stroke-miterlimit="10"/>
<path d="M-229.953 132.246C-23.0935 162.406 131.02 323.756 347.482 263.977C470.827 229.962 591.737 174.038 709.74 125.484C830.244 75.9162 1005.46 -27.7503 1140.77 -21.5965C1331.74 -12.9408 1391.18 257.62 1543.47 336.942C1725.17 431.615 1939.2 208.12 2119.28 184.587" stroke="#91A2EC" stroke-opacity="0.4" stroke-miterlimit="10"/>
<path d="M-244.291 176.337C-37.6343 198.112 133.656 323.959 345.79 274.323C470.758 245.11 593.899 198.044 715.013 156.591C839.778 113.921 1018.44 21.6153 1154.16 31.015C1346.07 44.2691 1381.85 305.498 1537.45 377.584C1728.28 466.035 1931.29 246.53 2119.35 221.442" stroke="#91A2EC" stroke-opacity="0.4" stroke-miterlimit="10"/>
<path d="M-259.508 220.901C-64.55 232.668 119.453 320.375 316.101 288.863C479.614 262.692 639.949 209.202 799.608 166.397C906.993 137.657 1049.48 78.3514 1162.81 91.4703C1359.26 114.192 1377.72 360.881 1546.98 426.882C1731.12 498.765 1938.11 282.033 2119.28 258.229" stroke="#91A2EC" stroke-opacity="0.4" stroke-miterlimit="10"/>
<path d="M-274.926 265.465C-77.8716 269.049 116.275 320.781 313.397 296.842C478.6 276.758 641.978 236.725 805.018 204.266C915.92 182.221 1059.15 132.923 1173.5 148.139C1362.71 173.295 1376.57 403.552 1539.47 467.862C1722.94 540.286 1938.25 319.226 2119.21 294.949" stroke="#91A2EC" stroke-opacity="0.4" stroke-miterlimit="10"/>
<path d="M-289.74 309.826C-89.7106 305.701 110.928 322.607 310.619 306.039C477.378 292.244 643.258 265.736 809.07 243.894C923.557 228.814 1066.11 189.93 1181.95 206.971C1363.78 233.682 1375.28 447.169 1532.17 509.044C1715.56 581.401 1938.11 356.486 2119.27 331.736" stroke="#91A2EC" stroke-opacity="0.4" stroke-miterlimit="10"/>
<path d="M-303.396 353.578C-99.5799 342.623 103.831 326.866 307.715 317.602C475.691 309.961 643.397 296.842 811.17 285.616C928.902 277.704 1069.42 249.235 1187.02 267.628C1361.69 294.881 1373.73 491.597 1525 550.158C1709.55 621.704 1937.1 393.746 2119.34 368.522" stroke="#91A2EC" stroke-opacity="0.4" stroke-miterlimit="10"/>
<path d="M-315.23 396.316C-107.492 380.086 95.8514 334.846 304.672 332.682C473.324 330.992 641.977 330.789 810.629 329.842C931.134 329.166 1068.27 310.908 1187.76 329.91C1355.74 356.689 1371.83 536.634 1518.24 591.003C1705.69 660.588 1934.6 431.142 2119.27 405.242" stroke="#91A2EC" stroke-opacity="0.4" stroke-miterlimit="10"/>
<path d="M-324.496 437.838C-113.241 418.498 88.1411 348.035 301.56 352.633C587.404 358.854 900.838 350.063 1183.16 393.883C1344.92 419.039 1369.4 582.552 1512.15 631.511C1704.81 697.647 1930.33 468.607 2119.21 441.963" stroke="#91A2EC" stroke-opacity="0.4" stroke-miterlimit="10"/>
<path d="M-330.512 477.666C-125.681 459.272 66.3692 370.821 273.635 377.178C569.892 386.239 882.988 418.766 1176.61 458.326C1334.58 479.627 1375.96 641.111 1522.43 675.126C1721.92 721.515 1924.59 505.459 2119.34 478.748" stroke="#91A2EC" stroke-opacity="0.4" stroke-miterlimit="10"/>
<path d="M-332.676 515.536C-126.154 500.456 62.1089 399.156 271.268 409.84C566.308 424.853 863.512 492.205 1157.13 525.476C1312.6 543.126 1372.85 686.555 1519.12 713.739C1727.06 752.352 1917.29 543.058 2119.21 515.536" stroke="#91A2EC" stroke-opacity="0.4" stroke-miterlimit="10"/>
<path d="M-330.312 552.391C-125.279 534.133 69.003 441.827 276.471 452.376C563.735 466.915 857.287 521.69 1142.66 558.004C1297.92 577.75 1374.27 718.744 1522.23 745.117C1727.46 781.701 1920.12 581.942 2119.27 552.391" stroke="#91A2EC" stroke-opacity="0.4" stroke-miterlimit="10"/>
<path d="M-323.551 589.246C-110.199 569.838 96.9307 491.328 312.446 504.514C579.828 520.879 855.326 551.242 1120.68 587.623C1275.2 608.789 1366.08 733.622 1512.76 765.54C1720.36 810.645 1918.3 619.677 2119.27 589.111" stroke="#91A2EC" stroke-opacity="0.4" stroke-miterlimit="10"/>
<path d="M-313.334 626.234C-99.0358 609.531 113.775 552.931 329.29 561.113C583.013 570.716 847.081 583.023 1098.98 614.333C1258.5 634.146 1368.66 753.569 1522.16 783.323C1728.35 823.221 1918.91 654.366 2119.21 625.896" stroke="#91A2EC" stroke-opacity="0.4" stroke-miterlimit="10"/>
<path d="M-300.217 663.226C156.24 638.07 618.175 593.236 1075.44 639.625C1242.2 656.531 1371.9 768.988 1534.06 796.376C1737.41 830.728 1920.73 687.299 2119.28 662.617" stroke="#91A2EC" stroke-opacity="0.4" stroke-miterlimit="10"/>
<path d="M-285.07 700.283C-65.1594 694.67 154.887 696.699 374.73 688.179C596.467 679.59 829.158 648.957 1050.49 664.578C1225.7 676.953 1376.43 775.818 1547.59 806.181C1743.09 840.804 1926.95 718.677 2119.28 699.404" stroke="#91A2EC" stroke-opacity="0.4" stroke-miterlimit="10"/>
<path d="M-268.641 737.341C-46.0248 739.167 178.755 776.022 400.965 756.208C606.067 737.882 819.08 683.31 1025.06 690.275C1209.4 696.497 1381.3 785.218 1562.33 813.891C1751.94 843.915 1931.55 749.446 2119.27 736.124" stroke="#91A2EC" stroke-opacity="0.4" stroke-miterlimit="10"/>
<path d="M-251.594 774.466C-28.2341 784.001 205.472 857.913 428.155 825.522C617.433 797.999 807.995 719.083 999.842 717.73C1193.38 716.378 1386.38 795.362 1577.55 820.923C1760.67 845.47 1936.9 780.079 2119.28 772.911" stroke="#91A2EC" stroke-opacity="0.4" stroke-miterlimit="10"/>
<path d="M-234.688 811.524C-7.06755 829.106 248.481 944.268 474.478 890.237C637.72 851.219 804.682 747.89 973.402 743.292C1167.95 737.95 1376.84 802.597 1570.31 825.927C1754.86 848.176 1934.73 811.118 2119.28 809.765" stroke="#91A2EC" stroke-opacity="0.4" stroke-miterlimit="10"/>
<path d="M-218.732 848.58C9.76664 873.059 271.807 1017.98 499.021 957.25C652.864 916.135 788.043 787.651 950.068 777.17C1153.01 763.983 1380.56 818.082 1583.9 836.002C1762.22 851.691 1940.55 842.156 2119.27 846.416" stroke="#91A2EC" stroke-opacity="0.4" stroke-miterlimit="10"/>
<path d="M-204.463 885.638C18.4234 914.851 300.48 1094.93 521.405 1022.1C665.375 974.631 773.37 831.81 929.579 816.324C1140.29 795.496 1383.74 837.626 1596.41 849.46C1770.81 859.198 1944.81 874.413 2119.21 883.204" stroke="#91A2EC" stroke-opacity="0.4" stroke-miterlimit="10"/>
</g>
</svg>
