<svg width="331" height="24" viewBox="0 0 331 24" fill="none" xmlns="http://www.w3.org/2000/svg">
<path d="M2.94976 16.8036L0.139573 17.8538L2.2399 23.4741L5.05008 22.424L3.99993 19.6138L2.94976 16.8036ZM327.611 20.734C329.262 20.5986 330.491 19.1502 330.355 17.4988C330.22 15.8475 328.772 14.6186 327.12 14.754L327.365 17.744L327.611 20.734ZM227.99 17.9651L227.755 20.9559L227.99 17.9651ZM3.99993 19.6138L5.05008 22.424C45.7467 7.21569 79.0295 5.08085 113.263 7.61827C130.434 8.891 147.826 11.3371 166.592 13.9187C185.332 16.4966 205.393 19.2018 227.755 20.9559L227.99 17.9651L228.224 14.9743C206.054 13.2353 186.147 10.5523 167.41 7.97468C148.699 5.40078 131.104 2.9242 113.706 1.6347C78.8034 -0.95235 44.6231 1.23034 2.94976 16.8036L3.99993 19.6138ZM227.99 17.9651L227.755 20.9559C256.515 23.2119 289.068 23.8945 327.611 20.734L327.365 17.744L327.12 14.754C288.937 17.8851 256.708 17.2086 228.224 14.9743L227.99 17.9651Z" fill="#1E1E1E"/>
</svg>
